<?xml version="1.0" standalone="no"?>
<!DOCTYPE svg PUBLIC "-//W3C//DTD SVG 20010904//EN"
 "http://www.w3.org/TR/2001/REC-SVG-20010904/DTD/svg10.dtd">
<svg version="1.0" xmlns="http://www.w3.org/2000/svg"
 width="700.000000pt" height="700.000000pt" viewBox="0 0 700.000000 700.000000"
 preserveAspectRatio="xMidYMid meet">
<metadata>
Created by potrace 1.11, written by Peter Selinger 2001-2013
</metadata>
<g transform="translate(0.000000,700.000000) scale(0.100000,-0.100000)"
fill="#000000" stroke="none">
<path d="M3448 6605 c-2 -2 -28 -6 -58 -9 -209 -24 -436 -114 -596 -237 -46
-35 -144 -77 -334 -142 -259 -89 -634 -234 -673 -260 -62 -42 -122 -130 -137
-203 -29 -139 32 -285 150 -359 46 -29 132 -55 182 -55 38 0 168 39 325 98
l83 31 -1 -67 c-1 -37 0 -349 0 -693 1 -505 4 -645 17 -719 34 -210 120 -386
261 -533 25 -26 43 -50 40 -53 -3 -4 -45 11 -93 31 -118 51 -233 68 -335 50
-249 -44 -444 -207 -514 -428 -53 -168 -27 -344 73 -489 38 -56 124 -139 174
-169 l38 -24 -5 -55 c-3 -30 -8 -79 -10 -107 -7 -74 -14 -149 -20 -213 -3 -30
-7 -80 -10 -110 -17 -198 -24 -262 -28 -266 -1 -1 -51 -5 -112 -8 -60 -4 -121
-9 -135 -11 -14 -3 -41 -7 -60 -9 -156 -19 -331 -111 -434 -228 -56 -64 -109
-163 -130 -242 -21 -83 -15 -213 13 -296 106 -305 481 -503 779 -411 l63 19
52 -22 52 -23 1450 1 1450 1 44 22 44 22 76 -21 c209 -59 434 6 602 172 124
123 174 244 174 415 -1 110 -21 188 -74 280 -77 134 -226 246 -395 296 -35 10
-83 18 -151 23 -187 16 -222 19 -235 22 -8 1 -18 3 -21 3 -4 1 -12 52 -19 114
-7 61 -14 123 -15 137 -2 14 -6 57 -10 95 -6 71 -13 135 -20 190 -2 17 -7 62
-10 100 -4 39 -9 73 -11 76 -2 4 24 25 59 47 110 72 181 150 232 257 42 86 56
149 57 240 3 271 -194 512 -479 586 -141 36 -268 23 -411 -42 -36 -16 -69 -29
-75 -29 -5 0 19 30 54 67 120 129 195 273 241 461 16 70 21 122 22 267 l1 180
-547 0 c-300 0 -549 3 -552 6 -3 3 -8 497 -11 1098 l-5 1093 62 -6 c64 -6 73
-7 168 -27 120 -25 326 -112 400 -169 l25 -19 -50 0 c-126 1 -245 -79 -302
-201 -34 -74 -36 -180 -4 -261 21 -55 83 -131 131 -161 24 -14 210 -84 510
-191 69 -25 133 -48 143 -52 15 -6 17 -26 17 -207 0 -109 4 -197 8 -194 4 2 7
90 6 195 0 105 2 191 6 191 4 0 77 -26 161 -57 142 -52 161 -57 239 -57 71 0
94 4 141 25 155 72 236 256 180 412 -41 119 -114 183 -266 237 -49 17 -112 40
-140 50 -27 10 -178 64 -335 120 -365 129 -333 116 -420 178 -187 134 -441
219 -682 227 -42 1 -78 1 -80 0z m43 -52 c0 -10 3 -504 5 -1098 l5 -1080 -537
0 -538 0 -1 554 0 554 220 79 c432 156 443 161 504 238 174 221 16 555 -259
547 l-51 -2 28 23 c82 66 351 170 484 187 30 4 55 8 56 9 1 1 21 3 43 4 32 2
40 -1 41 -15z m-499 -259 c60 -19 126 -78 163 -145 24 -44 30 -68 32 -127 3
-115 -48 -213 -142 -268 -38 -22 -468 -184 -583 -219 l-44 -14 7 71 c14 164
44 277 104 396 53 105 158 241 224 292 49 37 148 43 239 14z m1248 8 c124 -49
316 -357 345 -555 4 -23 8 -44 10 -47 9 -14 16 -170 8 -170 -10 0 -180 60
-436 153 -208 77 -250 105 -295 198 -68 141 -21 309 108 388 28 18 68 36 88
41 42 10 136 6 172 -8z m455 -162 c559 -197 586 -211 636 -340 77 -198 -65
-411 -276 -413 -51 0 -91 10 -226 58 -90 32 -169 62 -175 67 -6 4 -12 36 -13
70 -5 194 -73 395 -187 555 -24 34 -50 68 -56 75 -45 47 -39 47 74 7 62 -22
163 -58 223 -79z m-2035 104 c0 -3 -20 -29 -44 -57 -135 -161 -218 -381 -225
-597 -1 -41 -6 -78 -9 -82 -4 -4 -84 -35 -177 -68 -179 -65 -236 -74 -313 -50
-173 56 -264 252 -190 411 26 56 67 105 114 136 23 14 813 310 837 312 4 1 7
-2 7 -5z m1929 -1903 l24 -1 -6 -167 c-4 -134 -10 -187 -30 -264 -29 -111 -78
-221 -134 -305 -45 -66 -134 -164 -149 -164 -5 0 -39 21 -74 48 -45 32 -66 55
-68 72 -14 101 -134 162 -218 111 -32 -19 -32 -19 -112 4 -44 13 -107 27 -139
31 -32 4 -61 9 -65 10 -5 1 -24 2 -43 3 l-35 1 0 310 0 310 398 2 c348 3 571
2 651 -1z m-1089 -311 l0 -310 -32 -1 c-69 -3 -145 -16 -252 -44 -89 -23 -91
-23 -121 -5 -49 30 -96 32 -146 7 -49 -24 -89 -83 -84 -124 2 -19 -10 -33 -56
-68 -31 -25 -62 -45 -67 -45 -16 0 -108 107 -156 180 -50 76 -91 166 -116 257
-30 101 -32 118 -37 294 l-5 166 536 2 536 2 0 -311z m-5 -609 l1 -262 -76 6
c-161 14 -323 56 -445 117 -76 38 -195 117 -195 129 0 5 21 24 48 43 l47 35
23 -45 c60 -118 192 -139 265 -42 36 48 40 97 11 159 -13 28 -24 53 -24 55 0
7 138 43 210 54 41 7 82 13 90 14 46 7 45 15 45 -263z m155 254 c84 -11 220
-47 220 -57 0 -6 -9 -25 -19 -42 -43 -69 -36 -149 17 -198 52 -49 129 -57 182
-19 24 17 83 96 92 123 5 14 104 -47 112 -69 3 -7 -23 -31 -57 -53 -169 -112
-361 -175 -592 -196 l-65 -6 0 265 0 264 33 -3 c17 -2 52 -6 77 -9z m-587 -26
c19 -11 13 -16 -69 -55 -49 -24 -90 -44 -91 -44 -11 0 1 37 18 62 33 45 95 62
142 37z m972 1 c22 0 75 -50 75 -70 0 -16 -9 -14 -80 18 -44 20 -80 40 -80 44
0 8 40 16 58 12 8 -2 20 -4 27 -4z m-19 -84 c52 -25 94 -50 94 -56 0 -20 -38
-85 -63 -108 -30 -28 -92 -38 -126 -20 -39 21 -64 63 -63 104 1 33 44 124 59
124 3 0 48 -20 99 -44z m-876 -17 c25 -60 21 -105 -13 -136 -70 -64 -144 -46
-196 47 -24 42 -24 43 -5 58 27 21 156 81 175 81 11 1 25 -18 39 -50z m-799
-107 c6 -98 2 -435 -6 -440 -5 -3 -70 -6 -145 -6 l-135 -1 -3 -287 c-1 -159
-5 -288 -9 -288 -10 0 -96 72 -135 115 -45 48 -113 181 -127 250 -5 28 -9 84
-7 125 9 245 196 463 453 528 94 24 113 24 114 4z m194 -14 c33 -11 77 -29 98
-40 l38 -19 -44 -52 c-24 -29 -57 -72 -74 -97 -38 -56 -103 -185 -103 -204 0
-15 -42 -27 -59 -17 -9 6 -15 436 -6 452 7 11 83 -1 150 -23z m2115 -197 c0
-187 -3 -230 -14 -234 -24 -9 -55 4 -62 27 -26 84 -114 232 -179 305 l-37 41
58 27 c56 25 178 61 217 62 16 1 17 -16 17 -228z m175 202 c249 -79 413 -272
432 -507 15 -189 -87 -383 -262 -501 l-50 -33 -5 301 -5 302 -118 0 c-77 0
-120 4 -125 12 -5 8 -8 399 -3 445 1 10 79 0 136 -19z m-2000 -108 c169 -113
379 -184 595 -199 36 -3 68 -5 71 -5 10 -1 7 -51 -3 -57 -6 -4 -27 -9 -47 -11
-20 -3 -72 -16 -116 -30 -65 -21 -102 -26 -204 -27 -128 -1 -151 5 -151 41 0
9 -19 55 -41 102 -33 69 -58 102 -120 164 -43 42 -75 77 -72 77 4 0 43 -25 88
-55z m1401 -17 c-81 -81 -116 -135 -155 -240 l-26 -72 -130 1 c-110 0 -142 4
-210 26 -44 14 -96 27 -116 30 -49 6 -59 14 -55 40 3 12 5 25 5 28 1 3 13 4
29 3 41 -3 208 21 287 41 137 35 315 119 400 190 58 47 44 24 -29 -47z m-1430
-40 c73 -77 132 -182 137 -242 l2 -30 -227 0 c-262 -1 -241 -14 -181 109 37
73 94 157 146 212 l30 32 26 -19 c14 -10 44 -38 67 -62z m1633 -43 c54 -77
115 -201 108 -219 -5 -12 -431 -15 -443 -4 -8 9 23 99 54 156 14 26 59 80 100
121 l74 73 29 -28 c16 -15 51 -60 78 -99z m-934 -215 c3 -5 0 -10 -7 -11 -68
-4 -107 -4 -100 2 18 17 98 24 107 9z m140 0 c16 -1 17 -2 5 -9 -8 -5 -26 -7
-40 -6 -14 2 -35 4 -48 4 -14 1 -21 5 -16 12 4 7 21 9 43 5 20 -3 45 -6 56 -6z
m-685 -60 c8 -13 5 -115 -5 -160 -4 -18 -27 -60 -52 -94 -25 -34 -63 -95 -84
-137 -58 -116 -63 -119 -235 -119 l-144 0 -1 163 c-1 200 -1 203 19 285 14 54
21 67 40 72 43 10 455 1 462 -10z m535 6 c8 -3 12 -380 6 -498 -1 -17 -24 -18
-346 -18 -203 0 -345 4 -345 9 0 5 21 33 46 63 25 29 68 99 95 156 44 89 59
109 119 161 87 76 179 129 227 133 42 3 182 -1 198 -6z m288 0 c36 -7 148 -80
214 -140 41 -37 64 -71 102 -149 27 -56 70 -126 95 -155 25 -30 46 -58 46 -63
0 -5 -142 -9 -345 -9 -322 0 -345 1 -346 18 0 9 -1 126 -2 259 -2 200 0 243
12 245 22 5 193 0 224 -6z m229 5 l36 -1 4 -74 3 -73 -63 54 c-35 29 -77 60
-93 69 -40 20 -31 29 28 27 26 -1 65 -2 85 -2z m559 -12 c6 -11 16 -54 35
-163 2 -11 0 -24 -5 -30 -5 -6 -9 -74 -9 -151 0 -77 -1 -146 -1 -152 -1 -10
-35 -13 -135 -13 -131 0 -134 0 -164 28 -16 15 -48 63 -71 107 -22 44 -59 103
-80 132 -49 64 -64 132 -52 240 2 17 15 18 254 16 165 -1 222 -5 228 -14z
m295 9 c2 -3 -35 -32 -81 -66 -47 -34 -85 -57 -86 -52 -1 6 -2 34 -2 63 -2 42
1 53 16 57 20 6 147 3 153 -2z m-2511 -72 c0 -47 -4 -72 -10 -68 -28 16 -195
134 -195 138 0 2 46 4 103 4 l102 0 0 -74z m81 57 c-7 -17 -21 -79 -30 -127
-10 -57 -16 -37 -15 52 1 91 1 92 26 92 19 0 24 -4 19 -17z m744 13 c0 -2 -19
-15 -42 -29 -40 -24 -54 -34 -118 -93 l-25 -23 3 74 4 75 89 0 c49 0 89 -2 89
-4z m1480 -75 c0 -44 -4 -82 -9 -85 -5 -3 -14 22 -20 57 -6 34 -14 72 -17 85
-5 19 -2 22 20 22 26 0 26 0 26 -79z m-2415 -38 c141 -101 142 -106 24 -219
-90 -86 -115 -109 -147 -138 l-22 -19 0 237 c0 222 1 236 18 227 9 -5 67 -45
127 -88z m2665 -140 l0 -238 -104 104 c-107 107 -116 123 -106 188 4 27 22 45
105 107 55 42 101 76 103 76 1 0 2 -107 2 -237z m-253 25 c-3 -8 -6 -5 -6 6
-1 11 2 17 5 13 3 -3 4 -12 1 -19z m0 -230 c-2 -35 -3 -9 -3 57 0 66 1 94 3
63 2 -32 2 -86 0 -120z m-2302 40 l-1 -93 -107 -3 c-59 -1 -107 -1 -107 2 0 5
47 50 157 153 25 24 48 41 52 39 3 -3 6 -46 6 -98z m2480 -96 c-25 -2 -66 -2
-92 0 l-47 3 2 70 c0 39 1 79 1 90 1 15 23 -3 91 -70 l91 -90 -46 -3z m-2482
-62 c3 -11 3 -29 0 -40 -5 -17 -11 -20 -42 -15 -53 9 -162 43 -191 60 -23 13
-14 14 101 15 118 0 127 -1 132 -20z m277 5 c-32 -19 -150 -55 -179 -55 -17 0
-21 6 -21 35 l0 35 113 0 c103 -1 110 -2 87 -15z m116 -7 c-4 -13 -16 -68 -26
-123 -25 -128 -21 -366 6 -457 3 -10 7 -29 10 -43 18 -102 119 -307 195 -397
22 -26 38 -48 34 -48 -3 0 -112 78 -244 173 -131 96 -245 176 -253 179 -23 9
-30 84 -34 370 l-4 257 38 6 c61 11 154 44 207 74 63 36 80 38 71 9z m757 -5
c-2 -41 -3 -43 -21 -43 -10 0 -49 -15 -88 -34 -38 -18 -103 -46 -144 -61 -107
-39 -137 -77 -109 -139 16 -35 58 -50 103 -38 l36 10 0 -141 c1 -98 5 -155 15
-182 8 -22 15 -40 15 -40 0 0 -16 -1 -35 -2 -66 -3 -125 -66 -125 -134 0 -32
34 -99 51 -99 5 0 8 -23 5 -52 -2 -29 -4 -61 -5 -70 -1 -13 -9 -18 -29 -18
-16 0 -51 -11 -77 -25 l-49 -24 -44 47 c-200 219 -302 562 -256 867 16 107 21
130 34 171 l12 34 356 -2 356 -3 -1 -22z m773 -30 c25 -85 41 -234 38 -337
-10 -266 -118 -530 -285 -699 -35 -36 -40 -38 -55 -23 -24 24 -54 38 -93 43
-20 3 -38 7 -41 9 -2 3 -7 30 -10 61 -5 48 -4 59 13 72 29 25 47 66 47 112 0
35 -6 48 -38 80 -27 27 -51 40 -79 45 l-40 6 15 31 c11 23 15 66 15 179 0 146
0 148 21 142 44 -14 82 -8 106 18 25 28 26 78 1 105 -11 11 -59 35 -108 52
-48 18 -102 40 -119 50 -17 10 -48 24 -70 31 -46 15 -53 23 -46 56 l4 24 354
0 353 0 17 -57z m117 17 c45 -22 115 -48 155 -58 l74 -17 -5 -285 c-3 -157 -7
-294 -10 -305 -3 -11 -6 -25 -6 -31 -1 -6 -54 -49 -118 -96 -65 -46 -196 -142
-291 -211 -95 -70 -175 -127 -178 -127 -3 0 25 34 61 75 113 130 182 256 229
416 35 122 37 138 41 299 3 137 -9 249 -41 358 -3 12 -3 22 1 22 4 0 44 -18
88 -40z m227 5 c0 -30 -3 -35 -24 -35 -29 0 -142 35 -176 55 -23 13 -16 14 88
15 l112 0 0 -35z m298 23 c-5 -14 -111 -52 -174 -63 -40 -6 -42 -5 -46 23 -7
51 -4 52 114 52 83 0 109 -3 106 -12z m-261 -35 c-3 -10 -5 -4 -5 12 0 17 2
24 5 18 2 -7 2 -21 0 -30z m-2470 -32 c48 -17 114 -31 145 -33 32 -2 60 -8 62
-13 2 -6 4 -109 5 -230 2 -224 5 -294 15 -352 4 -18 3 -33 -1 -34 -19 -3 -204
-18 -301 -25 l-84 -6 7 92 c4 50 8 104 10 118 2 15 6 61 10 102 3 41 8 93 10
115 9 96 18 182 20 200 1 11 3 37 4 58 0 20 3 37 5 37 3 0 44 -13 93 -29z
m2743 -58 c5 -37 11 -102 15 -143 3 -41 8 -86 10 -100 2 -14 6 -59 10 -100 3
-41 8 -82 10 -90 2 -8 7 -49 10 -90 4 -41 9 -83 11 -94 3 -17 -2 -18 -54 -12
-31 3 -93 9 -137 12 -44 4 -87 8 -95 10 -8 1 -28 3 -43 3 l-28 1 7 68 c5 37 8
177 8 312 l0 245 25 -1 c36 -1 164 24 203 40 18 8 34 13 36 11 2 -2 7 -34 12
-72z m-1430 -171 l0 -208 -92 1 -92 0 -1 93 c0 51 2 97 5 101 3 4 29 16 58 26
29 11 61 28 72 40 35 37 31 96 -9 119 -13 8 -11 12 14 22 17 7 33 13 38 14 4
0 7 -94 7 -208z m96 172 c-23 -16 -35 -63 -24 -95 9 -26 24 -35 119 -73 l37
-14 -2 -99 -1 -98 -83 0 c-46 0 -86 3 -89 8 -4 7 -8 348 -4 394 1 9 9 9 33 1
28 -10 29 -12 14 -24z m-164 -38 c10 -14 10 -38 0 -53 -4 -6 -31 -20 -60 -31
-52 -20 -52 -20 -52 0 0 24 16 56 43 86 21 23 54 22 69 -2z m244 7 c19 -19 55
-95 49 -102 -9 -8 -95 22 -111 40 -28 31 -10 70 38 78 4 0 14 -7 24 -16z
m-375 -32 c-6 -10 -13 -33 -16 -51 -8 -44 -10 -47 -45 -55 -58 -13 -94 22 -65
62 9 12 104 57 133 62 1 1 -2 -7 -7 -18z m527 -16 c23 -9 42 -20 43 -24 0 -3
2 -14 4 -24 4 -22 -20 -47 -45 -47 -33 0 -70 22 -70 42 0 10 -6 34 -14 52
l-14 34 26 -8 c15 -4 46 -15 70 -25z m-328 -384 c0 -44 -2 -49 -26 -55 -14 -4
-35 -4 -47 0 -15 5 -26 0 -43 -21 l-21 -27 -22 44 c-11 24 -21 59 -21 76 l0
32 90 0 90 0 0 -49z m224 7 c-3 -24 -15 -58 -27 -77 -20 -33 -20 -33 -36 -12
-10 13 -32 23 -61 26 -24 3 -46 7 -48 9 -3 4 -6 57 -3 84 1 8 26 12 91 12 l89
0 -5 -42z m-224 -132 c0 -30 -3 -33 -24 -29 -19 4 -23 9 -16 22 5 9 11 24 14
34 9 28 26 10 26 -27z m70 14 c0 -10 5 -22 12 -26 8 -5 6 -10 -8 -14 -22 -8
-33 11 -26 47 5 26 22 21 22 -7z m-300 -49 c0 -25 -4 -30 -27 -33 -26 -3 -28
-7 -33 -53 l-6 -50 -11 38 c-18 60 8 105 75 126 1 1 2 -12 2 -28z m47 7 c-3
-8 -6 -5 -6 6 -1 11 2 17 5 13 3 -3 4 -12 1 -19z m510 -13 c37 -37 40 -66 12
-116 -13 -23 -14 -21 -19 31 -4 48 -8 55 -27 58 -18 3 -23 10 -23 33 0 38 14
37 57 -6z m-449 -13 c2 -7 -6 -12 -17 -12 -21 0 -27 11 -14 24 9 9 26 2 31
-12z m322 3 c11 -13 8 -15 -13 -15 -19 0 -25 4 -21 15 4 8 10 15 14 15 4 0 13
-7 20 -15z m1065 -10 c39 -3 102 -8 140 -12 39 -3 75 -6 82 -6 6 0 13 -15 15
-34 4 -31 0 -36 -41 -60 -118 -69 -232 -210 -267 -330 -24 -81 -27 -102 -26
-184 0 -147 61 -287 176 -401 39 -40 63 -69 54 -65 -10 3 -84 22 -165 42 -233
56 -223 53 -223 79 0 33 -6 35 -53 22 -47 -14 -73 -11 -80 8 -4 10 8 13 49 12
30 -1 63 2 75 6 19 7 21 13 15 51 -10 63 -48 97 -108 97 -71 0 -108 -36 -118
-115 -4 -33 -9 -58 -10 -55 -2 3 -4 56 -5 118 -1 62 -7 118 -12 123 -6 6 -21
9 -34 7 -23 -3 -24 -6 -27 -110 -2 -85 -6 -108 -17 -108 -10 0 -15 17 -17 68
-3 61 -5 67 -26 70 -36 5 -48 -12 -47 -67 1 -49 1 -50 -24 -44 -36 8 -39 12
-43 63 -3 43 -5 45 -33 45 -28 0 -30 -3 -33 -42 -2 -32 -7 -41 -18 -36 -10 4
-14 22 -14 67 l0 63 73 28 c301 117 517 345 607 643 22 72 22 72 54 67 17 -3
63 -7 101 -10z m-2326 -42 c7 -26 29 -86 49 -132 82 -190 203 -329 388 -443
104 -64 242 -119 365 -144 l86 -18 -27 -23 c-35 -29 -45 -29 -76 2 -20 20 -35
25 -73 25 -53 0 -84 -21 -106 -73 l-13 -30 -6 30 c-10 46 -39 66 -99 70 -45 4
-55 1 -79 -22 -16 -14 -28 -31 -28 -37 0 -6 -6 -6 -16 3 -8 7 -34 13 -57 14
-34 1 -43 5 -45 21 -3 19 2 20 53 19 50 -1 56 1 61 22 11 40 -10 51 -94 50
-42 0 -83 -2 -89 -5 -10 -3 -13 -40 -13 -136 l0 -132 -97 -23 c-54 -12 -147
-34 -208 -48 -60 -14 -131 -31 -157 -38 l-47 -14 67 67 c272 272 220 724 -105
925 -43 26 -53 37 -53 60 0 15 6 27 13 28 6 1 23 2 37 4 14 1 70 6 125 10 55
4 101 8 103 10 1 1 31 3 66 4 l63 2 12 -48z m221 -89 c102 -74 224 -163 271
-197 81 -58 87 -65 91 -103 10 -81 67 -125 167 -127 53 -2 63 -6 147 -67 86
-61 91 -67 82 -90 -5 -14 -9 -27 -9 -30 1 -7 -68 0 -144 15 -339 68 -598 259
-731 539 -37 78 -77 196 -66 196 4 0 90 -61 192 -136z m1904 44 c-35 -96 -67
-160 -120 -233 -115 -163 -296 -295 -492 -360 -163 -55 -198 -61 -221 -42 -13
12 -49 16 -83 9 -5 -1 -8 -11 -8 -22 0 -16 -7 -20 -32 -20 l-33 0 25 20 c108
84 251 180 260 175 18 -11 94 22 123 53 15 15 28 39 30 52 3 19 64 68 268 217
145 106 273 199 284 208 10 8 20 15 22 15 1 0 -9 -33 -23 -72z m-2574 54 c-1
-22 -16 -28 -43 -17 -15 6 -25 13 -23 16 8 7 66 9 66 1z m3140 0 c0 -3 -31
-15 -67 -26 -19 -6 -23 -4 -23 14 0 18 5 20 45 18 25 -2 45 -4 45 -6z m-1752
-50 c-9 -15 -26 -28 -37 -30 -18 -3 -21 2 -21 32 0 30 3 35 28 38 39 5 49 -8
30 -40z m-1648 -534 c0 -545 -1 -568 -18 -568 -29 0 -169 37 -210 56 -212 97
-356 291 -366 492 -12 267 204 512 509 576 33 7 65 13 72 13 10 0 13 -116 13
-569z m145 550 c22 -5 55 -14 73 -21 l33 -11 -7 -66 c-11 -121 -21 -228 -29
-305 -2 -22 -7 -79 -10 -128 -3 -48 -8 -96 -10 -107 -2 -11 -7 -57 -10 -102
-4 -46 -10 -112 -14 -148 -8 -69 0 -127 24 -164 15 -22 14 -22 -70 -43 l-85
-20 0 562 c0 309 3 565 6 568 7 7 19 5 99 -15z m1625 -13 c0 -35 0 -35 -45
-35 -44 0 -45 1 -34 23 16 28 39 46 62 47 13 0 17 -8 17 -35z m105 10 c35 -34
31 -45 -13 -45 -47 0 -50 2 -44 40 5 37 24 38 57 5z m115 -10 c0 -28 -4 -35
-20 -35 -11 0 -26 12 -35 30 -20 39 -20 40 20 40 33 0 35 -2 35 -35z m1548
-533 c1 -309 -1 -562 -5 -562 -9 0 -157 33 -161 36 -2 1 5 15 15 30 25 38 24
127 -1 329 -2 17 -7 59 -10 95 -14 138 -17 166 -21 200 -5 40 -11 96 -20 190
-3 36 -10 91 -14 123 -6 44 -4 60 6 69 15 12 183 58 198 54 6 -2 11 -201 13
-564z m168 543 c305 -87 491 -360 440 -644 -42 -230 -262 -428 -519 -466 l-47
-7 0 569 0 570 38 -4 c20 -2 60 -10 88 -18z m-2166 1 c0 -3 -4 -8 -10 -11 -5
-3 -10 -1 -10 4 0 6 5 11 10 11 6 0 10 -2 10 -4z m-1193 -88 c284 -192 323
-605 81 -850 -77 -77 -168 -129 -192 -109 -34 28 -40 100 -21 261 2 19 7 67
10 105 3 39 8 86 10 105 2 19 7 71 11 115 3 44 7 87 9 95 2 8 6 58 10 110 5
52 9 104 11 115 1 11 3 37 3 58 1 42 -1 42 68 -5z m2937 6 c2 -11 7 -57 11
-104 4 -47 8 -92 10 -100 2 -8 6 -44 9 -80 4 -36 9 -81 11 -100 2 -19 7 -64
10 -100 4 -36 8 -76 10 -90 2 -14 7 -59 10 -100 4 -41 9 -84 11 -95 12 -57 6
-143 -12 -174 -22 -37 -31 -38 -81 -10 -157 88 -267 240 -295 407 -34 202 67
419 252 543 46 31 49 31 54 3z m-1514 -124 l0 -121 -29 16 c-62 31 -105 125
-93 203 3 20 9 22 63 22 l59 0 0 -120z m162 102 c21 -80 -47 -212 -109 -212
-6 0 -9 170 -4 223 1 4 25 7 55 7 43 0 55 -4 58 -18z m-307 -121 c6 -10 3 -11
-14 -2 -11 7 -22 18 -22 26 -5 59 -4 82 5 94 8 11 12 0 17 -46 3 -33 9 -65 14
-72z m373 70 c1 -49 -2 -58 -31 -80 -16 -13 -17 -12 -7 13 5 15 10 49 10 76 0
38 3 48 14 44 9 -4 14 -22 14 -53z m-450 -3 c-3 -45 -6 -53 -23 -53 -11 0 -19
5 -18 11 1 6 3 30 4 53 2 32 7 41 21 41 17 0 19 -7 16 -52z m512 50 c0 -2 3
-27 6 -55 7 -55 6 -57 -20 -47 -11 4 -16 19 -16 48 0 24 3 46 7 49 6 7 23 10
23 5z m-489 -165 c14 -37 64 -89 102 -104 l31 -13 -70 -18 c-87 -22 -87 -22
-74 1 17 34 11 86 -15 125 -23 34 -24 36 -4 36 12 0 23 -10 30 -27z m470 3
c-27 -29 -39 -102 -22 -134 11 -20 10 -20 -52 -6 -34 8 -66 16 -72 18 -5 1 4
10 22 19 40 21 78 62 94 99 7 18 19 28 32 28 20 0 20 -1 -2 -24z m-633 -48
c-3 -21 -3 -21 -32 4 l-30 25 30 16 c27 14 29 14 32 -4 2 -10 2 -29 0 -41z
m49 15 c-3 -10 -5 -2 -5 17 0 19 2 27 5 18 2 -10 2 -26 0 -35z m673 -10 c0
-31 -2 -54 -4 -52 -6 7 -13 98 -8 104 11 10 12 4 12 -52z m100 17 c0 -5 -13
-18 -30 -30 l-30 -21 0 46 0 46 30 -16 c17 -9 30 -20 30 -25z m-555 -20 c30
-22 55 -43 55 -46 0 -10 -77 36 -99 60 -35 37 -18 32 44 -14z m274 14 c-13
-14 -37 -33 -54 -41 -36 -18 -25 -6 30 36 50 37 55 38 24 5z m-420 -30 c11
-38 -3 -76 -24 -68 -13 5 -15 17 -11 53 2 25 5 50 5 56 2 16 21 -10 30 -41z
m556 -11 c8 -72 -28 -89 -41 -20 -4 24 22 84 32 74 2 -2 6 -26 9 -54z m135
-23 c-19 -16 -39 -30 -44 -30 -12 0 -5 7 36 36 46 32 50 29 8 -6z m-849 -17
c38 -27 52 -63 25 -63 -18 0 -62 45 -69 70 -7 26 -3 25 44 -7z m849 -38 c-13
-14 -28 -25 -34 -25 -6 1 3 12 19 25 39 32 45 32 15 0z m-445 -2 c-2 -10 -4
-21 -4 -25 -1 -5 -33 -8 -73 -8 -39 0 -68 3 -64 7 4 4 38 15 74 24 37 9 68 17
69 18 1 0 0 -7 -2 -16z m183 -28 c3 -3 -27 -5 -66 -5 -69 0 -72 1 -72 24 l0
23 66 -18 c37 -10 69 -21 72 -24z m-265 -51 c23 -4 51 -8 62 -9 17 -1 20 -10
21 -63 1 -44 -2 -60 -10 -54 -6 5 -50 37 -98 71 -49 35 -88 64 -88 66 0 4 67
-3 113 -11z m347 9 c0 -5 -214 -163 -220 -163 -3 0 -6 32 -6 70 0 39 4 70 8
70 4 0 10 1 13 1 62 18 205 33 205 22z m39 -231 c-12 -35 -19 -38 -37 -20 -22
22 -14 46 16 50 35 4 34 6 21 -30z m-219 -16 l45 -13 5 -99 c5 -97 5 -99 30
-100 42 -2 47 5 45 54 -2 66 6 83 20 42 21 -62 85 -58 101 7 10 37 21 11 18
-42 -3 -49 12 -68 48 -63 21 3 23 9 26 66 4 74 23 80 34 11 11 -66 34 -79 127
-76 l76 2 3 33 c4 42 32 44 32 2 0 -24 5 -31 27 -36 19 -5 30 -2 39 11 7 10
11 22 7 28 -8 13 33 -1 71 -24 20 -12 50 -19 84 -19 44 0 351 -68 552 -122
l44 -12 -29 -12 c-44 -19 -2919 -19 -2953 -1 -22 13 15 24 348 102 3 1 23 5
45 9 22 5 70 16 108 26 37 11 82 16 100 13 23 -3 39 0 49 10 23 24 126 48 136
33 32 -55 138 -60 179 -9 13 15 23 37 23 48 0 13 7 6 20 -21 43 -87 162 -87
200 -1 l17 38 7 -27 c4 -16 19 -38 32 -51 23 -21 34 -23 102 -21 l77 3 3 107
3 107 27 4 c15 2 27 5 27 5 0 1 20 -4 45 -12z m-630 -82 c0 -8 -4 -14 -9 -14
-5 0 -22 -3 -39 -6 -30 -6 -31 -5 -26 22 3 16 13 35 22 42 14 11 20 10 35 -9
9 -12 17 -27 17 -35z m1480 33 c0 -1 -13 -3 -30 -3 -30 -2 -41 10 -17 19 10 4
47 -9 47 -16z m-1270 9 c0 -2 -9 -6 -20 -9 -11 -3 -20 -1 -20 4 0 5 9 9 20 9
11 0 20 -2 20 -4z m238 -13 c17 -37 2 -93 -26 -93 -38 0 -55 47 -32 91 13 24
46 25 58 2z m-598 -50 c0 -18 -9 -24 -42 -33 -24 -6 -49 -13 -55 -15 -9 -3
-13 7 -13 33 l0 37 55 0 c50 0 55 -2 55 -22z m380 11 c0 -49 -49 -72 -71 -33
-12 23 -5 34 26 42 37 9 45 7 45 -9z m897 -38 c-6 -17 -51 -13 -55 5 -2 12 4
15 28 11 17 -2 29 -9 27 -16z m-1142 -6 c-3 -5 -16 -10 -28 -9 -20 1 -20 2 3
9 14 4 26 8 28 9 2 1 0 -3 -3 -9z"/>
<path d="M2986 5129 c-75 -22 -94 -68 -92 -224 2 -97 6 -125 21 -148 25 -38
62 -55 114 -53 36 2 50 9 77 39 37 40 36 38 36 194 0 72 -5 110 -16 132 -27
51 -85 76 -140 60z m91 -53 c27 -24 28 -27 31 -137 2 -125 -7 -170 -41 -187
-46 -23 -82 -19 -112 14 -24 26 -25 33 -25 151 0 124 0 125 29 154 37 36 79
38 118 5z"/>
<path d="M3386 2024 c-9 -8 -16 -28 -16 -44 0 -16 7 -36 16 -44 18 -19 20 -19
45 -6 14 8 19 21 19 50 0 29 -5 42 -19 50 -25 13 -27 13 -45 -6z"/>
<path d="M3586 2024 c-19 -18 -16 -82 4 -94 27 -16 55 5 58 44 5 58 -28 85
-62 50z m31 -56 c-3 -8 -6 -5 -6 6 -1 11 2 17 5 13 3 -3 4 -12 1 -19z"/>
<path d="M3960 5123 c-54 -28 -70 -70 -70 -189 0 -129 6 -159 41 -193 55 -55
149 -45 189 21 17 28 20 50 20 158 0 106 -3 130 -20 157 -34 56 -102 75 -160
46z m101 -33 c36 -20 46 -59 45 -184 -2 -116 -2 -119 -29 -142 -56 -48 -146
-16 -148 53 -1 43 -1 185 0 211 2 54 79 90 132 62z"/>
</g>
</svg>
